<svg width="560" height="418" viewBox="0 0 560 418" fill="none" xmlns="http://www.w3.org/2000/svg">
<path d="M560 366.688H0V366.968H560V366.688Z" fill="#E6E6E6"/>
<path d="M119.661 377.317H81.1328V377.597H119.661V377.317Z" fill="#E6E6E6"/>
<path d="M334.007 379.31H322.493V379.59H334.007V379.31Z" fill="#E6E6E6"/>
<path d="M153.059 381.304H131.376V381.584H153.059V381.304Z" fill="#E6E6E6"/>
<path d="M470.165 380.643H441.403V380.923H470.165V380.643Z" fill="#E6E6E6"/>
<path d="M421.792 376.667H402.147V376.947H421.792V376.667Z" fill="#E6E6E6"/>
<path d="M306.308 376.219H201.387V376.499H306.308V376.219Z" fill="#E6E6E6"/>
<path d="M265.44 316.736H49.1789C47.4848 316.733 45.861 316.058 44.6641 314.859C43.4672 313.66 42.7949 312.035 42.7949 310.341V6.3392C42.8097 4.65475 43.4884 3.04414 44.6837 1.8572C45.8791 0.670273 47.4944 0.00288555 49.1789 0H265.44C267.136 0 268.762 0.673778 269.962 1.87311C271.161 3.07244 271.835 4.69909 271.835 6.3952V310.341C271.835 312.037 271.161 313.664 269.962 314.863C268.762 316.062 267.136 316.736 265.44 316.736ZM49.1789 0.224001C47.559 0.226968 46.0065 0.872553 44.8621 2.01905C43.7177 3.16556 43.0749 4.71929 43.0749 6.3392V310.341C43.0749 311.961 43.7177 313.514 44.8621 314.661C46.0065 315.807 47.559 316.453 49.1789 316.456H265.44C267.061 316.453 268.614 315.808 269.761 314.662C270.907 313.515 271.552 311.962 271.555 310.341V6.3392C271.552 4.71826 270.907 3.16455 269.761 2.01837C268.614 0.872189 267.061 0.226961 265.44 0.224001H49.1789Z" fill="#E6E6E6"/>
<path d="M507.707 316.736H291.435C289.74 316.733 288.115 316.058 286.916 314.86C285.718 313.661 285.043 312.036 285.04 310.341V6.3392C285.058 4.65373 285.739 3.04313 286.936 1.8565C288.133 0.669882 289.75 0.00285408 291.435 0H507.707C509.39 0.00582904 511.002 0.674519 512.195 1.86114C513.388 3.04775 514.065 4.65668 514.08 6.3392V310.341C514.08 312.033 513.409 313.656 512.215 314.855C511.02 316.054 509.399 316.73 507.707 316.736ZM291.435 0.224001C289.814 0.226961 288.261 0.872189 287.114 2.01837C285.968 3.16455 285.323 4.71826 285.32 6.3392V310.341C285.323 311.962 285.968 313.515 287.114 314.662C288.261 315.808 289.814 316.453 291.435 316.456H507.707C509.328 316.453 510.882 315.808 512.028 314.662C513.174 313.515 513.819 311.962 513.822 310.341V6.3392C513.819 4.71826 513.174 3.16455 512.028 2.01837C510.882 0.872189 509.328 0.226961 507.707 0.224001H291.435Z" fill="#E6E6E6"/>
<path d="M385.078 257.163C384.462 257.163 383.846 257.163 383.219 257.219C379.319 257.501 375.53 258.641 372.122 260.558C368.715 262.476 365.773 265.123 363.508 268.31C361.244 271.498 359.712 275.146 359.022 278.995C358.333 282.844 358.503 286.797 359.52 290.573C362.413 301.854 363.81 313.468 363.675 325.114V359.027C363.675 360.215 364.147 361.355 364.987 362.195C365.827 363.035 366.967 363.507 368.155 363.507H475.798V257.163H385.078Z" fill="#F0F0F0"/>
<path d="M502.242 283.674C502.243 276.792 499.567 270.179 494.781 265.234C489.995 260.289 483.473 257.399 476.594 257.175C469.716 256.951 463.02 259.41 457.922 264.034C452.824 268.657 449.724 275.081 449.277 281.949C449.08 284.851 449.367 287.765 450.128 290.573C453.022 301.854 454.419 313.468 454.284 325.114V359.027C454.284 360.215 454.756 361.355 455.596 362.195C456.436 363.035 457.575 363.507 458.764 363.507H492.756C493.944 363.507 495.083 363.035 495.923 362.195C496.764 361.355 497.236 360.215 497.236 359.027V323.12C497.138 312.199 498.516 301.315 501.335 290.763C501.956 288.452 502.261 286.067 502.242 283.674Z" fill="#FAFAFA"/>
<path d="M439.196 298.928H249.905V363.474H439.196V298.928Z" fill="#F0F0F0"/>
<path d="M190.12 221.603H371.975C377.29 221.615 382.383 223.735 386.138 227.498C389.892 231.26 392 236.358 392 241.674V313.522H170.05V241.674C170.05 236.351 172.164 231.246 175.928 227.482C179.692 223.718 184.797 221.603 190.12 221.603Z" fill="#E6E6E6"/>
<path d="M214.412 221.603H398.204C400.712 221.603 403.195 222.097 405.512 223.057C407.829 224.016 409.934 225.423 411.707 227.196C413.481 228.97 414.887 231.075 415.847 233.391C416.806 235.708 417.3 238.191 417.3 240.699V313.499H195.316V240.699C195.316 235.635 197.328 230.777 200.91 227.196C204.491 223.615 209.348 221.603 214.412 221.603Z" fill="#FAFAFA"/>
<path d="M256.234 293.037H437.92C439.465 293.037 440.946 293.65 442.039 294.743C443.131 295.835 443.744 297.316 443.744 298.861V313.499C443.744 315.044 443.131 316.525 442.039 317.617C440.946 318.71 439.465 319.323 437.92 319.323H256.234C255.774 319.323 255.332 319.14 255.007 318.815C254.681 318.489 254.498 318.048 254.498 317.587V294.773C254.498 294.312 254.681 293.871 255.007 293.545C255.332 293.22 255.774 293.037 256.234 293.037Z" fill="#E6E6E6"/>
<path d="M160.519 257.163C159.903 257.163 159.287 257.163 158.66 257.219C154.757 257.495 150.964 258.63 147.552 260.544C144.14 262.458 141.193 265.104 138.924 268.291C136.655 271.477 135.118 275.127 134.425 278.977C133.732 282.828 133.9 286.784 134.916 290.562C137.809 301.843 139.206 313.456 139.071 325.102V359.016C139.071 360.204 139.543 361.344 140.383 362.184C141.223 363.024 142.363 363.496 143.551 363.496H251.194V257.163H160.519Z" fill="#F0F0F0"/>
<path d="M277.681 283.674C277.682 276.792 275.006 270.179 270.22 265.234C265.434 260.289 258.912 257.399 252.034 257.175C245.155 256.951 238.46 259.41 233.362 264.034C228.264 268.657 225.164 275.081 224.717 281.949C224.519 284.851 224.807 287.765 225.568 290.573C228.461 301.854 229.858 313.468 229.723 325.114V359.027C229.723 360.215 230.195 361.355 231.035 362.195C231.875 363.035 233.015 363.507 234.203 363.507H268.195C269.383 363.507 270.523 363.035 271.363 362.195C272.203 361.355 272.675 360.215 272.675 359.027V323.12C272.577 312.199 273.956 301.315 276.774 290.763C277.396 288.452 277.701 286.067 277.681 283.674Z" fill="#FAFAFA"/>
<path d="M473.839 366.699H162.4C161.545 366.699 160.724 366.359 160.12 365.754C159.515 365.15 159.175 364.329 159.175 363.474H477.12C477.12 363.902 477.035 364.326 476.87 364.721C476.704 365.116 476.461 365.474 476.156 365.775C475.85 366.075 475.488 366.311 475.09 366.47C474.693 366.629 474.267 366.707 473.839 366.699Z" fill="#E0E0E0"/>
<path d="M325.976 64.2096H134.288V157.55H325.976V64.2096Z" fill="#E0E0E0"/>
<path d="M335.182 64.2096H140.694V157.55H335.182V64.2096Z" fill="#F5F5F5"/>
<path d="M327.824 150.203V71.568L148.053 71.568V150.203H327.824Z" fill="white"/>
<path d="M310.105 117.902V103.846C310.105 96.5412 304.183 90.6192 296.878 90.6192L178.998 90.6192C171.693 90.6192 165.771 96.5412 165.771 103.846V117.902C165.771 125.208 171.693 131.13 178.998 131.13H296.878C304.183 131.13 310.105 125.208 310.105 117.902Z" fill="#F5F5F5"/>
<path d="M417.514 120.837H371.852V168.146H417.514V120.837Z" fill="#E0E0E0"/>
<path d="M422.173 120.837H377.664V168.146H422.173V120.837Z" fill="#F5F5F5"/>
<path d="M418.443 164.427V124.566H381.394V164.427H418.443Z" fill="white"/>
<path d="M399.918 134.422L389.782 151.973H410.054L399.918 134.422Z" fill="#F5F5F5"/>
<path d="M478.364 89.824H432.701V137.133H478.364V89.824Z" fill="#E0E0E0"/>
<path d="M483.033 89.824H438.524V137.133H483.033V89.824Z" fill="#F5F5F5"/>
<path d="M479.304 133.414V93.5536H442.254V133.414H479.304Z" fill="white"/>
<path d="M465.304 120.59L469.706 112.974C470.164 112.179 470.405 111.277 470.404 110.359C470.403 109.441 470.16 108.54 469.7 107.745C469.241 106.951 468.58 106.291 467.785 105.833C466.99 105.375 466.088 105.134 465.17 105.134H456.378C455.46 105.134 454.558 105.375 453.763 105.833C452.968 106.291 452.307 106.951 451.848 107.745C451.388 108.54 451.146 109.441 451.145 110.359C451.144 111.277 451.384 112.179 451.842 112.974L456.244 120.59C456.703 121.386 457.363 122.046 458.158 122.506C458.953 122.965 459.856 123.207 460.774 123.207C461.692 123.207 462.595 122.965 463.39 122.506C464.185 122.046 464.845 121.386 465.304 120.59Z" fill="#F5F5F5"/>
<path d="M64.5343 283.36H39.2559V361.726H64.5343V283.36Z" fill="#E6E6E6"/>
<path d="M168.739 361.726H44.1055V366.688H168.739V361.726Z" fill="#E6E6E6"/>
<path d="M64.534 361.726H173.6V283.36H64.534L64.534 361.726Z" fill="#FAFAFA"/>
<path d="M74.4692 318.707H163.666V293.003H74.4692V318.707Z" fill="#F0F0F0"/>
<path d="M74.4692 352.072H163.666V326.368H74.4692V352.072Z" fill="#F0F0F0"/>
<path d="M129.786 307.619H108.349C107.882 307.616 107.435 307.428 107.105 307.097C106.776 306.765 106.591 306.317 106.591 305.85C106.594 305.384 106.78 304.939 107.109 304.609C107.438 304.28 107.884 304.094 108.349 304.091H129.786C130.251 304.094 130.697 304.28 131.026 304.609C131.355 304.939 131.541 305.384 131.544 305.85C131.544 306.317 131.36 306.765 131.03 307.097C130.701 307.428 130.253 307.616 129.786 307.619Z" fill="#FAFAFA"/>
<path d="M129.786 340.984H108.349C107.883 340.984 107.436 340.799 107.106 340.469C106.776 340.139 106.591 339.692 106.591 339.226C106.591 338.759 106.776 338.312 107.106 337.982C107.436 337.653 107.883 337.467 108.349 337.467H129.786C130.252 337.467 130.7 337.653 131.029 337.982C131.359 338.312 131.544 338.759 131.544 339.226C131.544 339.692 131.359 340.139 131.029 340.469C130.7 340.799 130.252 340.984 129.786 340.984Z" fill="#FAFAFA"/>
<path d="M98.403 225.87H83.843C84.2574 239.982 77.8174 247.957 77.8174 264.566C77.8174 279.507 81.4686 282.307 91.1342 282.307C100.8 282.307 104.451 279.507 104.451 264.566C104.429 247.957 97.9774 239.982 98.403 225.87Z" fill="#FAFAFA"/>
<path d="M85.8252 281.77H96.398V282.666C96.398 282.85 96.3248 283.026 96.1946 283.157C96.0644 283.287 95.8878 283.36 95.7036 283.36H86.5196C86.3354 283.36 86.1588 283.287 86.0286 283.157C85.8984 283.026 85.8252 282.85 85.8252 282.666V281.77Z" fill="#F3F7FF"/>
<path d="M75.0731 231.011H73.9531V252.437H75.0731V231.011Z" fill="#E0E0E0"/>
<path d="M114.252 237.754H67.9619L75.9027 190.31H106.322L114.252 237.754Z" fill="#EBEBEB"/>
<path d="M280 417.267C399.932 417.267 497.156 411.591 497.156 404.589C497.156 397.587 399.932 391.91 280 391.91C160.067 391.91 62.8428 397.587 62.8428 404.589C62.8428 411.591 160.067 417.267 280 417.267Z" fill="#F5F5F5"/>
<path d="M271.432 371.414C270.379 334.869 269.035 159.018 271.141 140.694L275.341 136.114C275.341 136.114 275.24 141.366 275.139 155.355C274.702 217.963 273.078 362.074 273.437 371.381L271.432 371.414Z" fill="#66A8E2"/>
<path opacity="0.6" d="M271.432 371.414C270.379 334.869 269.035 159.018 271.141 140.694L275.341 136.114C275.341 136.114 275.24 141.366 275.139 155.355C274.702 217.963 273.078 362.074 273.437 371.381L271.432 371.414Z" fill="white"/>
<path d="M288.58 267.456C298.906 257.141 310.798 248.522 323.815 241.92C333.481 237.194 308.135 268.061 298.212 279.563C288.289 291.066 276.081 303.778 272.161 314.518C271.377 292.634 276.349 279.63 288.58 267.456Z" fill="#66A8E2"/>
<path opacity="0.6" d="M288.58 267.456C298.906 257.141 310.798 248.522 323.815 241.92C333.481 237.194 308.135 268.061 298.212 279.563C288.289 291.066 276.081 303.778 272.161 314.518C271.377 292.634 276.349 279.63 288.58 267.456Z" fill="white"/>
<path d="M272.059 174.037C264.511 140.728 266.84 121.576 275.341 101.046C283.293 81.8496 289.498 73.2704 298.738 66.0016C301.123 64.1312 295.759 90.9664 287.538 110.97C281.736 125.082 278.858 143.45 274.848 154.022C272.059 161.28 272.059 174.037 272.059 174.037Z" fill="#66A8E2"/>
<path opacity="0.6" d="M272.059 174.037C264.511 140.728 266.84 121.576 275.341 101.046C283.293 81.8496 289.498 73.2704 298.738 66.0016C301.123 64.1312 295.759 90.9664 287.538 110.97C281.736 125.082 278.858 143.45 274.848 154.022C272.059 161.28 272.059 174.037 272.059 174.037Z" fill="white"/>
<path d="M272.463 247.027C271.634 227.091 270.637 207.827 285.791 182.504C289.476 176.333 322.079 124.264 333.335 121.128C338.856 119.605 329.045 159.891 313.97 183.938C302.658 201.958 297.439 206.73 285.063 227.763C280.191 236.051 272.463 247.027 272.463 247.027Z" fill="#66A8E2"/>
<path opacity="0.6" d="M272.463 247.027C271.634 227.091 270.637 207.827 285.791 182.504C289.476 176.333 322.079 124.264 333.335 121.128C338.856 119.605 329.045 159.891 313.97 183.938C302.658 201.958 297.439 206.73 285.063 227.763C280.191 236.051 272.463 247.027 272.463 247.027Z" fill="white"/>
<path d="M252.997 164.696C239.691 151.861 226.643 143.416 216.978 139.149C207.312 134.882 232.759 166.813 244.978 180.678C257.197 194.544 268.397 206.573 273.191 218.915C271.813 192.472 266.314 177.542 252.997 164.696Z" fill="#66A8E2"/>
<path opacity="0.6" d="M252.997 164.696C239.691 151.861 226.643 143.416 216.978 139.149C207.312 134.882 232.759 166.813 244.978 180.678C257.197 194.544 268.397 206.573 273.191 218.915C271.813 192.472 266.314 177.542 252.997 164.696Z" fill="white"/>
<path d="M273.202 284.838C271.04 269.819 266.112 252.672 258.552 240.8C250.992 228.928 239.355 210.829 229.723 205.934C227.416 204.758 240.151 241.438 246.322 251.586C251.373 259.973 257.516 267.652 264.589 274.422C266.224 276.114 273.202 284.838 273.202 284.838Z" fill="#66A8E2"/>
<path opacity="0.6" d="M273.202 284.838C271.04 269.819 266.112 252.672 258.552 240.8C250.992 228.928 239.355 210.829 229.723 205.934C227.416 204.758 240.151 241.438 246.322 251.586C251.373 259.973 257.516 267.652 264.589 274.422C266.224 276.114 273.202 284.838 273.202 284.838Z" fill="white"/>
<path d="M289.386 380.89H255.517L252.964 344.4H291.94L289.386 380.89Z" fill="#66A8E2"/>
<path d="M294.459 350.549H250.443L249.178 341.04H295.725L294.459 350.549Z" fill="#66A8E2"/>
<g opacity="0.4">
<path opacity="0.4" d="M289.385 380.89H255.516L252.963 344.4H291.939L289.385 380.89Z" fill="black"/>
<path opacity="0.4" d="M294.459 350.549H250.443L249.178 341.04H295.725L294.459 350.549Z" fill="black"/>
</g>
<path d="M326.009 244.518C315.593 246.389 281.612 225.243 270.11 211.322C278.367 204.18 285.927 196.271 292.689 187.701C285.23 196.246 273.246 203.829 266.134 207.861C262.92 205.083 261.038 203.381 261.038 203.381C261.038 203.381 290.158 193.626 305.636 159.32C317.43 133.213 334.566 119.202 352.676 132.619C387.889 141.243 350.56 233.778 326.009 244.518Z" fill="#263238"/>
<path d="M336.504 188.16C336.224 188.574 336.056 188.821 335.832 189.112L335.216 189.941C334.791 190.478 334.365 190.982 333.928 191.486C333.043 192.494 332.147 193.458 331.207 194.376C329.311 196.199 327.29 197.886 325.159 199.427C323.019 200.945 320.773 202.308 318.439 203.504C317.251 204.075 316.075 204.624 314.855 205.128L313.029 205.845L312.547 206.035C312.256 206.125 312.01 206.214 311.685 206.293C310.954 206.479 310.196 206.536 309.445 206.461C308.518 206.364 307.628 206.049 306.847 205.542C306.187 205.091 305.621 204.516 305.178 203.851C304.604 202.962 304.197 201.975 303.979 200.939C303.672 199.467 303.541 197.963 303.587 196.459C303.67 193.869 303.954 191.289 304.439 188.742C304.898 186.267 305.435 183.848 306.04 181.451C306.645 179.054 307.339 176.702 308.157 174.328L312.357 175.347C312.055 177.699 311.719 180.085 311.495 182.459C311.271 184.834 310.991 187.186 310.856 189.526C310.698 191.782 310.68 194.045 310.8 196.302C310.842 197.231 310.993 198.152 311.248 199.046C311.349 199.371 311.495 199.584 311.45 199.461C311.355 199.295 311.221 199.156 311.058 199.058C310.793 198.868 310.485 198.749 310.162 198.71C310.013 198.687 309.862 198.687 309.714 198.71L310.072 198.542L311.573 197.814C312.581 197.333 313.544 196.773 314.519 196.246C316.432 195.111 318.282 193.873 320.063 192.539C321.816 191.176 323.481 189.702 325.047 188.126C325.842 187.365 326.592 186.558 327.287 185.741C327.634 185.326 327.992 184.912 328.317 184.498L328.81 183.882L329.213 183.366L336.504 188.16Z" fill="#E4897B"/>
<path d="M311.976 176.378L315.594 169.893L306.701 170.43C306.701 170.43 306.141 174.642 308.582 177.218L311.976 176.378Z" fill="#E4897B"/>
<path d="M338.8 177.397C330.019 177.744 323.344 186.088 323.344 186.088L334.544 200.2C334.544 200.2 342.944 191.733 343.705 187.085C344.523 182.235 344.086 177.184 338.8 177.397Z" fill="#66A8E2"/>
<path opacity="0.3" d="M338.8 177.397C330.019 177.744 323.344 186.088 323.344 186.088L334.544 200.2C334.544 200.2 342.944 191.733 343.705 187.085C344.523 182.235 344.086 177.184 338.8 177.397Z" fill="black"/>
<path d="M313.935 165.995L307.417 167.619L306.7 170.43L315.593 169.893L313.935 165.995Z" fill="#E4897B"/>
<path d="M313.32 158.2L314.473 158.805L313.947 166.97L311.371 167.149L313.32 158.2Z" fill="#E4897B"/>
<path d="M311.36 157.886L310.229 158.155L309.153 167.944L311.696 167.294L311.36 157.886Z" fill="#E4897B"/>
<path d="M330.657 180.051C330.657 180.051 327.218 182.638 350.055 227.875L383.039 217.426C378.234 204.176 375.591 195.888 373.295 166.286C368.386 166.796 363.52 167.661 358.735 168.874C353.63 170.088 348.618 171.668 343.738 173.6C337.489 176.243 330.657 180.051 330.657 180.051Z" fill="#66A8E2"/>
<path opacity="0.3" d="M330.657 180.051C330.657 180.051 327.218 182.638 350.055 227.875L383.039 217.426C378.234 204.176 375.591 195.888 373.295 166.286C368.386 166.796 363.52 167.661 358.735 168.874C353.63 170.088 348.618 171.668 343.738 173.6C337.489 176.243 330.657 180.051 330.657 180.051Z" fill="black"/>
<path d="M407.78 395.282L399.548 396.077L390.98 376.477L399.212 375.682L407.78 395.282Z" fill="#E4897B"/>
<path d="M390.98 376.488L395.393 386.59H403.984L399.224 375.682L390.98 376.488Z" fill="#CE6F64"/>
<path d="M482.059 354.827L477.366 361.95L459.379 353.36L464.083 346.248L482.059 354.827Z" fill="#E4897B"/>
<path d="M464.082 346.248L459.39 353.36L468.663 357.784L473.356 350.672L464.082 346.248Z" fill="#CE6F64"/>
<path d="M350.056 227.875C350.056 227.875 348.398 295.893 356.776 320.51C365.479 346.114 391.115 383.656 391.115 383.656L407.098 382.883C407.098 382.883 384.048 335.709 381.45 315.336C377.888 287.246 374.237 220.226 374.237 220.226L350.056 227.875Z" fill="#66A8E2"/>
<path opacity="0.6" d="M350.056 227.875C350.056 227.875 348.398 295.893 356.776 320.51C365.479 346.114 391.115 383.656 391.115 383.656L407.098 382.883C407.098 382.883 384.048 335.709 381.45 315.336C377.888 287.246 374.237 220.226 374.237 220.226L350.056 227.875Z" fill="black"/>
<path opacity="0.3" d="M376.969 264.029L365.209 237.149C365.209 237.149 366.564 268.139 377.843 276.114C377.54 272.082 377.249 268.016 376.969 264.029Z" fill="black"/>
<path d="M358.78 225.12C358.78 225.12 381.18 279.406 395.987 309.299C407.971 333.435 465.203 358.232 465.203 358.232L471.206 348.152C471.206 348.152 427.425 320.376 419.148 304.002C392.66 251.597 398.305 228.816 383.073 217.426L358.78 225.12Z" fill="#66A8E2"/>
<path opacity="0.6" d="M358.78 225.12C358.78 225.12 381.18 279.406 395.987 309.299C407.971 333.435 465.203 358.232 465.203 358.232L471.206 348.152C471.206 348.152 427.425 320.376 419.148 304.002C392.66 251.597 398.305 228.816 383.073 217.426L358.78 225.12Z" fill="black"/>
<path d="M475.384 361.178L476 351.68C476.01 351.515 476.078 351.358 476.193 351.239C476.308 351.12 476.462 351.046 476.627 351.03L484.265 350.437C484.457 350.429 484.649 350.461 484.827 350.531C485.006 350.602 485.168 350.71 485.302 350.847C485.436 350.984 485.54 351.149 485.606 351.329C485.673 351.509 485.7 351.701 485.688 351.893C485.408 355.253 485.117 356.821 484.837 361.021C484.68 363.608 484.691 369.354 484.456 372.915C484.22 376.477 480.681 376.454 480.457 374.942C479.449 368.222 477.557 365.053 475.821 362.69C475.497 362.255 475.342 361.718 475.384 361.178Z" fill="#263238"/>
<path d="M398.451 393.534H408.531C408.714 393.537 408.891 393.598 409.036 393.709C409.181 393.82 409.287 393.975 409.338 394.15L411.578 402.147C411.635 402.336 411.646 402.536 411.61 402.731C411.575 402.925 411.493 403.108 411.373 403.264C411.252 403.421 411.096 403.546 410.918 403.631C410.739 403.715 410.543 403.755 410.346 403.749C406.806 403.693 405.082 403.491 400.635 403.491C397.902 403.491 390.824 403.771 387.05 403.771C383.275 403.771 382.57 400.03 384.115 399.694C390.97 398.182 394.923 396.088 397.029 394.094C397.415 393.735 397.923 393.535 398.451 393.534Z" fill="#263238"/>
<path d="M351.904 152.466C352.487 157.595 354.334 166.723 358.725 168.874C358.725 168.874 358.96 174.182 350 177.027C340.144 180.141 343.739 173.667 343.739 173.667C348.712 170.677 347.312 166.734 345.184 163.285L351.904 152.466Z" fill="#E4897B"/>
<path d="M335.227 177.632C337.668 176.378 340.771 174.866 343.739 173.622C348.614 171.685 353.622 170.098 358.724 168.874C361.614 168.112 364.526 167.541 366.979 167.149C367.505 168.773 369.219 180.499 351.702 184.834C336.358 188.642 334.42 180.163 335.227 177.632Z" fill="#E4897B"/>
<path d="M343.1 173.947C342.951 173.946 342.807 173.891 342.697 173.79C342.595 173.681 342.539 173.537 342.54 173.387C342.539 173.241 342.595 173.1 342.697 172.995C342.805 172.894 342.947 172.838 343.094 172.838C343.242 172.838 343.384 172.894 343.492 172.995C343.597 173.099 343.657 173.24 343.66 173.387C343.657 173.538 343.597 173.682 343.492 173.79C343.387 173.892 343.246 173.948 343.1 173.947Z" fill="#F0F0F0"/>
<path d="M346.975 180.634C346.826 180.617 346.689 180.541 346.594 180.424C346.5 180.306 346.456 180.156 346.471 180.006C346.488 179.86 346.562 179.725 346.678 179.633C346.793 179.541 346.94 179.498 347.087 179.514C347.161 179.521 347.233 179.542 347.298 179.577C347.363 179.612 347.421 179.659 347.468 179.716C347.515 179.774 347.55 179.84 347.571 179.911C347.592 179.982 347.599 180.056 347.591 180.13C347.575 180.267 347.509 180.394 347.406 180.487C347.303 180.58 347.17 180.632 347.031 180.634H346.975ZM348.711 180.096C348.695 179.948 348.738 179.799 348.83 179.682C348.922 179.565 349.056 179.488 349.204 179.469C349.351 179.453 349.498 179.496 349.614 179.588C349.729 179.681 349.803 179.815 349.82 179.962C349.831 180.035 349.827 180.111 349.808 180.183C349.789 180.255 349.755 180.323 349.709 180.381C349.663 180.44 349.605 180.489 349.539 180.524C349.474 180.56 349.402 180.582 349.327 180.589C349.181 180.602 349.035 180.558 348.921 180.466C348.806 180.374 348.731 180.242 348.711 180.096ZM350.951 179.76C350.914 179.617 350.933 179.466 351.007 179.338C351.08 179.21 351.201 179.116 351.343 179.077C351.415 179.057 351.489 179.051 351.563 179.061C351.636 179.07 351.707 179.095 351.771 179.132C351.835 179.17 351.89 179.22 351.934 179.28C351.978 179.34 352.01 179.408 352.026 179.48C352.064 179.623 352.044 179.774 351.971 179.902C351.898 180.03 351.777 180.124 351.634 180.163H351.489C351.364 180.168 351.241 180.131 351.139 180.058C351.038 179.985 350.964 179.88 350.929 179.76H350.951ZM344.646 179.894C344.582 179.858 344.525 179.81 344.48 179.752C344.435 179.694 344.403 179.627 344.384 179.556C344.365 179.485 344.361 179.411 344.371 179.338C344.381 179.266 344.406 179.196 344.444 179.133C344.521 179.005 344.645 178.912 344.789 178.875C344.934 178.837 345.087 178.857 345.217 178.931C345.28 178.969 345.336 179.019 345.38 179.079C345.424 179.138 345.456 179.206 345.473 179.278C345.491 179.35 345.494 179.424 345.483 179.498C345.472 179.571 345.446 179.641 345.407 179.704C345.358 179.787 345.287 179.856 345.203 179.903C345.118 179.951 345.023 179.975 344.926 179.973C344.819 179.978 344.714 179.951 344.623 179.894H344.646ZM353.09 179.11C353.061 179.043 353.045 178.97 353.043 178.896C353.042 178.822 353.055 178.749 353.082 178.68C353.109 178.612 353.15 178.549 353.201 178.496C353.253 178.443 353.314 178.4 353.382 178.371C353.449 178.342 353.522 178.326 353.596 178.324C353.67 178.323 353.743 178.336 353.812 178.363C353.881 178.39 353.943 178.43 353.996 178.482C354.049 178.533 354.092 178.595 354.121 178.662C354.178 178.799 354.179 178.953 354.125 179.091C354.071 179.229 353.965 179.34 353.83 179.402C353.756 179.418 353.679 179.418 353.606 179.402C353.497 179.41 353.389 179.388 353.294 179.336C353.198 179.284 353.12 179.206 353.068 179.11H353.09ZM355.039 178.08C354.997 178.019 354.967 177.95 354.951 177.878C354.936 177.805 354.935 177.731 354.948 177.658C354.962 177.585 354.99 177.515 355.03 177.453C355.071 177.391 355.123 177.338 355.185 177.296C355.307 177.214 355.457 177.183 355.601 177.21C355.746 177.238 355.874 177.321 355.958 177.442C356 177.501 356.031 177.568 356.047 177.639C356.064 177.711 356.066 177.784 356.053 177.856C356.04 177.928 356.014 177.997 355.974 178.059C355.935 178.12 355.883 178.173 355.823 178.214C355.727 178.28 355.614 178.315 355.498 178.315C355.409 178.317 355.32 178.296 355.24 178.255C355.159 178.214 355.091 178.154 355.039 178.08ZM342.921 178.08C342.889 178.013 342.87 177.941 342.866 177.867C342.863 177.793 342.873 177.718 342.898 177.649C342.923 177.579 342.962 177.515 343.012 177.46C343.062 177.405 343.122 177.361 343.19 177.33C343.255 177.297 343.326 177.278 343.399 177.274C343.472 177.269 343.544 177.279 343.613 177.303C343.682 177.327 343.745 177.365 343.8 177.414C343.854 177.462 343.898 177.521 343.929 177.587C343.961 177.653 343.98 177.725 343.985 177.799C343.99 177.872 343.98 177.946 343.956 178.016C343.932 178.086 343.895 178.15 343.846 178.205C343.797 178.26 343.738 178.305 343.671 178.338C343.597 178.372 343.517 178.391 343.436 178.394C343.329 178.396 343.224 178.368 343.133 178.312C343.041 178.257 342.968 178.176 342.921 178.08ZM356.842 176.781C356.79 176.73 356.749 176.669 356.721 176.601C356.692 176.534 356.678 176.462 356.678 176.389C356.678 176.316 356.692 176.244 356.721 176.176C356.749 176.109 356.79 176.048 356.842 175.997C356.893 175.943 356.953 175.901 357.021 175.871C357.088 175.842 357.161 175.827 357.234 175.827C357.308 175.827 357.381 175.842 357.448 175.871C357.515 175.901 357.576 175.943 357.626 175.997C357.679 176.049 357.721 176.111 357.749 176.179C357.777 176.247 357.792 176.32 357.792 176.394C357.792 176.468 357.777 176.542 357.749 176.61C357.721 176.678 357.679 176.74 357.626 176.792C357.574 176.849 357.509 176.894 357.438 176.925C357.367 176.956 357.29 176.972 357.212 176.971C357.138 176.958 357.067 176.931 357.004 176.89C356.94 176.85 356.886 176.798 356.842 176.736V176.781ZM342.35 175.661C342.345 175.587 342.355 175.514 342.379 175.444C342.403 175.374 342.441 175.31 342.49 175.255C342.539 175.2 342.598 175.155 342.664 175.122C342.73 175.09 342.803 175.071 342.876 175.067C343.026 175.061 343.172 175.114 343.283 175.215C343.394 175.315 343.461 175.455 343.47 175.605C343.473 175.678 343.461 175.752 343.436 175.821C343.41 175.89 343.372 175.953 343.322 176.007C343.272 176.062 343.212 176.105 343.145 176.136C343.078 176.167 343.006 176.184 342.932 176.187C342.859 176.19 342.785 176.179 342.716 176.153C342.647 176.128 342.584 176.089 342.529 176.039C342.475 175.989 342.432 175.929 342.401 175.862C342.37 175.795 342.353 175.723 342.35 175.65V175.661ZM358.287 175.034C358.224 174.996 358.168 174.945 358.124 174.886C358.08 174.826 358.049 174.759 358.031 174.687C358.013 174.615 358.01 174.54 358.021 174.467C358.033 174.394 358.058 174.324 358.097 174.261C358.177 174.137 358.303 174.049 358.447 174.015C358.591 173.982 358.743 174.006 358.87 174.082C358.996 174.16 359.086 174.285 359.122 174.429C359.157 174.574 359.135 174.726 359.06 174.854C359.008 174.936 358.937 175.003 358.853 175.049C358.769 175.096 358.675 175.122 358.578 175.123C358.474 175.118 358.373 175.083 358.287 175.022V175.034ZM359.407 173.062C359.338 173.038 359.275 172.999 359.221 172.949C359.167 172.9 359.124 172.839 359.093 172.773C359.063 172.706 359.047 172.634 359.045 172.56C359.043 172.487 359.056 172.414 359.082 172.346C359.107 172.277 359.146 172.213 359.196 172.159C359.245 172.105 359.305 172.062 359.372 172.032C359.439 172.002 359.511 171.985 359.585 171.983C359.658 171.981 359.731 171.994 359.799 172.021C359.869 172.047 359.932 172.086 359.986 172.137C360.04 172.188 360.084 172.249 360.114 172.317C360.144 172.385 360.161 172.458 360.162 172.532C360.164 172.606 360.151 172.68 360.124 172.749C360.085 172.856 360.013 172.948 359.918 173.012C359.824 173.076 359.712 173.11 359.598 173.107C359.516 173.112 359.434 173.092 359.362 173.051L359.407 173.062ZM360.113 170.946C359.968 170.911 359.842 170.822 359.76 170.697C359.679 170.572 359.649 170.42 359.676 170.274C359.692 170.201 359.722 170.133 359.764 170.072C359.807 170.012 359.861 169.96 359.923 169.921C359.986 169.881 360.056 169.854 360.128 169.842C360.201 169.829 360.276 169.831 360.348 169.848C360.42 169.863 360.488 169.891 360.549 169.933C360.609 169.974 360.661 170.027 360.7 170.089C360.74 170.15 360.767 170.219 360.779 170.291C360.792 170.363 360.79 170.437 360.774 170.509C360.746 170.634 360.677 170.747 360.577 170.828C360.478 170.909 360.353 170.955 360.225 170.957H360.113V170.946Z" fill="#F0F0F0"/>
<path d="M360.517 168.683C360.442 168.686 360.368 168.674 360.299 168.647C360.229 168.62 360.166 168.579 360.113 168.526C360.061 168.474 360.02 168.411 359.993 168.341C359.966 168.272 359.953 168.198 359.957 168.123C359.956 167.977 360.012 167.836 360.113 167.731C360.166 167.68 360.226 167.639 360.293 167.608C360.396 167.569 360.509 167.56 360.618 167.581C360.727 167.603 360.828 167.655 360.909 167.731C361.013 167.835 361.073 167.976 361.077 168.123C361.072 168.274 361.012 168.417 360.909 168.526C360.856 168.574 360.795 168.612 360.729 168.638C360.662 168.668 360.59 168.684 360.517 168.683Z" fill="#F0F0F0"/>
<path d="M349.16 156.867L345.184 163.229C345.697 164.027 346.136 164.87 346.494 165.749C348.454 164.797 350.974 161.986 350.504 159.757C350.232 158.721 349.777 157.742 349.16 156.867Z" fill="#CE6F64"/>
<path d="M349.574 141.12C352.386 149.094 353.752 152.41 351.512 158.066C348.152 166.566 337.736 168.291 332.595 161.314C327.97 155.042 324.139 143.046 330.434 136.73C331.815 135.328 333.533 134.303 335.422 133.752C337.312 133.201 339.311 133.143 341.229 133.583C343.148 134.023 344.922 134.947 346.382 136.266C347.843 137.585 348.942 139.256 349.574 141.12Z" fill="#E4897B"/>
<path d="M337.948 132.63C336.19 135.341 343.347 151.021 353.841 147.896C359.094 146.328 357.324 142.822 354.233 139.709C350.505 136.015 345.663 133.653 340.457 132.989L337.948 132.63Z" fill="#263238"/>
<path d="M338.352 133.078C335.26 132.776 324.99 134.669 325.438 145.107C325.438 145.107 329.705 141.277 341.6 140.627L338.352 133.078Z" fill="#263238"/>
<path d="M353.752 147.56C353.987 148.336 354.067 149.152 353.986 149.959C353.905 150.766 353.666 151.55 353.281 152.264C352.251 154.168 350.179 153.608 349.171 151.827C348.264 150.214 347.715 147.28 349.373 145.97C349.743 145.694 350.176 145.514 350.633 145.447C351.09 145.38 351.557 145.427 351.991 145.585C352.425 145.742 352.813 146.005 353.121 146.35C353.428 146.695 353.645 147.111 353.752 147.56Z" fill="#E4897B"/>
<path d="M382.95 215.331L385.369 217.818C385.559 218.008 385.369 218.333 384.988 218.456L350.369 229.41C350.066 229.499 349.775 229.41 349.697 229.253L348.465 226.386C348.375 226.195 348.588 225.938 348.913 225.837L382.334 215.264C382.433 215.221 382.543 215.204 382.651 215.216C382.759 215.228 382.862 215.268 382.95 215.331Z" fill="#66A8E2"/>
<path d="M338.699 148.232C338.968 148.87 338.845 149.52 338.441 149.699C338.038 149.878 337.467 149.498 337.198 148.87C336.929 148.243 337.053 147.582 337.467 147.403C337.881 147.224 338.43 147.594 338.699 148.232Z" fill="#263238"/>
<path d="M331.519 151.267C331.788 151.894 331.676 152.555 331.262 152.734C330.847 152.914 330.287 152.533 330.019 151.906C329.75 151.278 329.873 150.618 330.287 150.438C330.702 150.259 331.273 150.629 331.519 151.267Z" fill="#263238"/>
<path d="M330.511 150.394L328.798 150.606C328.798 150.606 330.086 151.458 330.511 150.394Z" fill="#263238"/>
<path d="M333.894 151.547C333.941 153.233 333.76 154.917 333.356 156.554C333.776 156.648 334.211 156.648 334.631 156.555C335.051 156.462 335.446 156.278 335.787 156.016L333.894 151.547Z" fill="#DE5753"/>
<path d="M338.99 157.584C338.951 157.584 338.913 157.573 338.881 157.551C338.849 157.528 338.824 157.497 338.811 157.461C338.799 157.437 338.793 157.41 338.792 157.384C338.791 157.357 338.795 157.33 338.805 157.305C338.814 157.28 338.828 157.257 338.847 157.238C338.865 157.219 338.887 157.203 338.911 157.192C339.708 156.876 340.418 156.377 340.984 155.735C341.551 155.093 341.957 154.325 342.171 153.496C342.175 153.47 342.184 153.444 342.198 153.422C342.212 153.399 342.231 153.38 342.253 153.365C342.276 153.351 342.301 153.341 342.327 153.336C342.353 153.332 342.38 153.333 342.406 153.339C342.432 153.343 342.458 153.353 342.481 153.367C342.504 153.381 342.524 153.399 342.54 153.421C342.555 153.443 342.566 153.468 342.572 153.494C342.578 153.521 342.579 153.548 342.574 153.574C342.348 154.47 341.912 155.298 341.303 155.992C340.693 156.685 339.927 157.223 339.068 157.562L338.99 157.584Z" fill="#263238"/>
<path d="M339.718 145.04C339.647 145.043 339.576 145.023 339.516 144.984C339.085 144.719 338.597 144.56 338.093 144.521C337.588 144.482 337.082 144.564 336.615 144.76C336.568 144.784 336.516 144.799 336.462 144.803C336.409 144.807 336.355 144.801 336.304 144.784C336.253 144.767 336.206 144.741 336.165 144.706C336.124 144.671 336.091 144.629 336.067 144.581C336.042 144.533 336.028 144.481 336.024 144.427C336.02 144.374 336.026 144.32 336.043 144.269C336.059 144.218 336.086 144.171 336.121 144.13C336.156 144.09 336.198 144.056 336.246 144.032C336.834 143.777 337.475 143.668 338.114 143.713C338.753 143.758 339.373 143.955 339.919 144.29C340.011 144.343 340.078 144.431 340.105 144.534C340.133 144.637 340.118 144.746 340.065 144.838C340.033 144.902 339.983 144.955 339.921 144.99C339.86 145.026 339.789 145.043 339.718 145.04Z" fill="#263238"/>
<path d="M326.738 149.374H326.67C326.618 149.365 326.568 149.345 326.524 149.317C326.479 149.288 326.44 149.25 326.41 149.207C326.38 149.163 326.359 149.114 326.348 149.062C326.337 149.01 326.336 148.956 326.346 148.904C326.452 148.267 326.712 147.665 327.102 147.15C327.492 146.635 328.001 146.222 328.586 145.947C328.635 145.921 328.689 145.905 328.745 145.9C328.801 145.896 328.857 145.903 328.91 145.922C328.963 145.941 329.012 145.97 329.053 146.008C329.093 146.047 329.126 146.093 329.148 146.145C329.17 146.196 329.181 146.252 329.18 146.308C329.179 146.364 329.166 146.42 329.143 146.471C329.12 146.521 329.086 146.567 329.044 146.604C329.002 146.641 328.953 146.669 328.899 146.686C328.447 146.916 328.056 147.251 327.758 147.661C327.46 148.072 327.264 148.548 327.186 149.05C327.164 149.149 327.106 149.238 327.024 149.298C326.941 149.358 326.839 149.385 326.738 149.374Z" fill="#263238"/>
<path d="M379.679 173.914C380.486 174.866 381.471 175.941 382.39 176.96C383.308 177.979 384.305 178.987 385.29 179.973C387.25 181.966 389.266 183.904 391.383 185.707C393.5 187.51 395.639 189.269 397.879 190.837C398.428 191.251 398.999 191.598 399.582 191.957C400.164 192.315 400.702 192.707 401.295 193.077C401.889 193.446 402.494 193.805 403.02 194.085L403.737 194.454L404.521 194.768C405.652 195.178 406.818 195.485 408.004 195.686C409.284 195.885 410.574 196.009 411.868 196.056C414.596 196.118 417.326 195.976 420.033 195.63C422.83 195.3 425.608 194.821 428.354 194.197C431.121 193.626 433.954 192.875 436.598 192.102L438.199 196.112C435.476 197.379 432.687 198.501 429.844 199.472C426.981 200.442 424.068 201.26 421.119 201.925C418.089 202.613 415.005 203.037 411.902 203.19C408.566 203.376 405.222 202.998 402.012 202.07L400.746 201.622L399.492 201.062C398.708 200.693 398.081 200.334 397.375 199.942C396.67 199.55 395.998 199.203 395.337 198.822C394.676 198.442 393.982 198.05 393.343 197.624C390.745 195.987 388.25 194.192 385.873 192.248C383.51 190.322 381.247 188.283 379.086 186.155C378.01 185.08 376.958 183.982 375.927 182.862C374.886 181.742 373.922 180.622 372.881 179.334L379.679 173.914Z" fill="#E4897B"/>
<path d="M475.372 366.083C475.264 366.093 475.155 366.093 475.047 366.083C474.926 366.067 474.812 366.018 474.717 365.941C474.622 365.864 474.55 365.762 474.51 365.646C474.118 364.627 475.955 362.152 476.167 361.872C476.19 361.842 476.222 361.82 476.258 361.808C476.294 361.796 476.332 361.795 476.369 361.805C476.408 361.811 476.444 361.83 476.473 361.858C476.501 361.886 476.519 361.922 476.526 361.962C476.716 363.082 476.918 365.075 476.134 365.826C476.03 365.917 475.91 365.987 475.779 366.031C475.648 366.075 475.51 366.093 475.372 366.083ZM476.201 362.477C475.495 363.485 474.678 364.93 474.879 365.467C474.879 365.534 474.958 365.613 475.126 365.646C475.25 365.685 475.383 365.69 475.51 365.663C475.638 365.636 475.756 365.576 475.854 365.49C476.279 365.12 476.403 364 476.201 362.477Z" fill="#66A8E2"/>
<path d="M473.345 364C473.263 364.012 473.18 364.012 473.098 364C472.945 363.955 472.811 363.86 472.717 363.73C472.624 363.6 472.577 363.443 472.583 363.283C472.571 363.128 472.594 362.972 472.65 362.826C472.706 362.681 472.794 362.55 472.908 362.443C473.782 361.581 476.268 361.726 476.335 361.726C476.37 361.731 476.403 361.744 476.432 361.763C476.461 361.783 476.485 361.808 476.503 361.838C476.522 361.869 476.532 361.904 476.532 361.939C476.532 361.975 476.522 362.01 476.503 362.04C475.718 363.049 474.598 363.744 473.345 364ZM475.854 362.096C474.923 362.018 473.991 362.234 473.188 362.712C473.118 362.78 473.064 362.862 473.029 362.953C472.995 363.044 472.98 363.141 472.986 363.238C472.986 363.496 473.11 363.563 473.199 363.586C473.782 363.742 475.226 362.869 475.921 362.096H475.854Z" fill="#66A8E2"/>
<path d="M393.971 395.203C393.281 395.253 392.593 395.089 392 394.733C391.843 394.622 391.715 394.476 391.626 394.307C391.536 394.138 391.488 393.95 391.485 393.759C391.47 393.653 391.486 393.546 391.53 393.449C391.573 393.352 391.643 393.269 391.731 393.21C392.661 392.594 396.099 394.15 396.782 394.475C396.82 394.492 396.852 394.521 396.872 394.557C396.892 394.594 396.9 394.636 396.894 394.677C396.889 394.719 396.871 394.759 396.843 394.79C396.815 394.822 396.778 394.845 396.737 394.856C395.83 395.069 394.903 395.185 393.971 395.203ZM392.358 393.456C392.222 393.449 392.086 393.48 391.966 393.546C391.935 393.566 391.911 393.594 391.897 393.629C391.883 393.663 391.88 393.7 391.888 393.736C391.887 393.868 391.918 393.998 391.979 394.115C392.039 394.232 392.127 394.332 392.235 394.408C393.03 395.013 394.934 394.789 396.032 394.587C394.874 394.02 393.634 393.639 392.358 393.456Z" fill="#66A8E2"/>
<path d="M396.692 394.856H396.614C395.494 394.386 393.175 392.549 393.254 391.586C393.254 391.384 393.422 391.115 393.948 391.059C395.953 390.802 396.804 394.419 396.849 394.621C396.856 394.651 396.856 394.682 396.849 394.712C396.842 394.742 396.828 394.77 396.809 394.793C396.789 394.817 396.765 394.836 396.737 394.849C396.709 394.862 396.678 394.868 396.647 394.867L396.692 394.856ZM394.172 391.44H394.038C393.825 391.44 393.713 391.518 393.702 391.619C393.623 392.179 395.214 393.635 396.379 394.274C396.11 393.4 395.36 391.44 394.172 391.44Z" fill="#66A8E2"/>
<path d="M438.67 190.523L436.251 184.542L432.196 192.203C432.196 192.203 434.683 196.426 438.211 196.112L438.759 194.555C439.218 193.245 439.186 191.812 438.67 190.523Z" fill="#E4897B"/>
<path d="M337.658 147.358L335.955 147.571C335.955 147.571 337.243 148.422 337.658 147.358Z" fill="#263238"/>
<path d="M408.228 383.354L389.155 384.362L386.399 379.075L407.097 378.392L408.228 383.354Z" fill="#66A8E2"/>
<path opacity="0.7" d="M408.228 383.354L389.155 384.362L386.399 379.075L407.097 378.392L408.228 383.354Z" fill="white"/>
<path d="M472.584 346.831L464.889 359.453L460.835 358.613L468.048 343.795L472.584 346.831Z" fill="#66A8E2"/>
<path opacity="0.7" d="M472.584 346.831L464.889 359.453L460.835 358.613L468.048 343.795L472.584 346.831Z" fill="white"/>
<path d="M379.68 220.494L380.576 220.214C380.755 220.158 380.856 220.024 380.811 219.912L379.142 216.16C379.142 216.048 378.907 216.014 378.728 216.07L377.832 216.35C377.653 216.35 377.552 216.541 377.597 216.653L379.232 220.36C379.277 220.506 379.467 220.55 379.68 220.494Z" fill="#66A8E2"/>
<path d="M352.979 228.928L353.875 228.648C354.054 228.648 354.166 228.458 354.121 228.346L352.486 224.638C352.43 224.526 352.251 224.493 352.071 224.549L351.175 224.829C350.996 224.829 350.895 225.019 350.94 225.131L352.575 228.838C352.62 228.939 352.799 228.984 352.979 228.928Z" fill="#66A8E2"/>
<path d="M366.318 224.717L367.214 224.426C367.382 224.426 367.494 224.235 367.449 224.123L365.814 220.427C365.814 220.315 365.579 220.27 365.4 220.326L364.504 220.606C364.324 220.662 364.224 220.808 364.268 220.909L365.904 224.616C365.948 224.728 366.139 224.773 366.318 224.717Z" fill="#66A8E2"/>
<path opacity="0.6" d="M379.68 220.494L380.576 220.214C380.755 220.158 380.856 220.024 380.811 219.912L379.142 216.16C379.142 216.048 378.907 216.014 378.728 216.07L377.832 216.35C377.653 216.35 377.552 216.541 377.597 216.653L379.232 220.36C379.277 220.506 379.467 220.55 379.68 220.494Z" fill="black"/>
<path opacity="0.6" d="M352.979 228.928L353.875 228.648C354.054 228.648 354.166 228.458 354.121 228.346L352.486 224.638C352.43 224.526 352.251 224.493 352.071 224.549L351.175 224.829C350.996 224.829 350.895 225.019 350.94 225.131L352.575 228.838C352.62 228.939 352.799 228.984 352.979 228.928Z" fill="black"/>
<path opacity="0.6" d="M366.318 224.717L367.214 224.426C367.382 224.426 367.494 224.235 367.449 224.123L365.814 220.427C365.814 220.315 365.579 220.27 365.4 220.326L364.504 220.606C364.324 220.662 364.224 220.808 364.268 220.909L365.904 224.616C365.948 224.728 366.139 224.773 366.318 224.717Z" fill="black"/>
<path d="M373.329 166.286C376.947 166.286 384.529 176.366 384.529 176.366L374.595 189.605C374.595 189.605 368.256 181.339 368.289 176.624C368.334 171.73 369.185 166.331 373.329 166.286Z" fill="#66A8E2"/>
<path opacity="0.3" d="M373.329 166.286C376.947 166.286 384.529 176.366 384.529 176.366L374.595 189.605C374.595 189.605 368.256 181.339 368.289 176.624C368.334 171.73 369.185 166.331 373.329 166.286Z" fill="black"/>
<path d="M432.925 184.229L432.835 190.254C432.836 190.531 432.922 190.801 433.081 191.027L435.265 194.085L436.251 184.542L435.131 183.366C434.952 183.191 434.727 183.072 434.482 183.022C434.236 182.972 433.982 182.994 433.749 183.085C433.516 183.176 433.314 183.332 433.168 183.535C433.022 183.738 432.937 183.979 432.925 184.229Z" fill="#E4897B"/>
<path d="M240.431 98.4704V369.51H407.199V98.4704H240.431ZM392.751 358.646H245.079V109.323H392.728L392.751 358.646Z" fill="#66A8E2"/>
<path opacity="0.6" d="M240.431 98.4704V369.51H407.199V98.4704H240.431ZM392.751 358.646H245.079V109.323H392.728L392.751 358.646Z" fill="white"/>
<path d="M245.078 109.323H243.521V358.646H245.078V109.323Z" fill="white"/>
<path d="M245.078 109.323H243.521V358.646H245.078V109.323Z" fill="#F0F0F0"/>
<path d="M424.682 35.0224H123.682C121.086 35.0282 118.598 36.0588 116.759 37.89C114.919 39.7211 113.877 42.2045 113.859 44.8V393.96C113.868 396.561 114.906 399.053 116.747 400.892C118.587 402.73 121.08 403.765 123.682 403.771H424.682C427.282 403.765 429.774 402.73 431.613 400.891C433.451 399.052 434.487 396.56 434.493 393.96V44.8C434.478 42.2056 433.439 39.7221 431.601 37.8907C429.763 36.0592 427.276 35.0283 424.682 35.0224ZM245.079 109.323H392.728V358.646H245.079V109.323Z" fill="#66A8E2"/>
<path opacity="0.5" d="M424.682 35.0224H123.682C121.086 35.0282 118.598 36.0588 116.759 37.89C114.919 39.7211 113.877 42.2045 113.859 44.8V393.96C113.868 396.561 114.906 399.053 116.747 400.892C118.587 402.73 121.08 403.765 123.682 403.771H424.682C427.282 403.765 429.774 402.73 431.613 400.891C433.451 399.052 434.487 396.56 434.493 393.96V44.8C434.478 42.2056 433.439 39.7221 431.601 37.8907C429.763 36.0592 427.276 35.0283 424.682 35.0224ZM245.079 109.323H392.728V358.646H245.079V109.323Z" fill="black"/>
<path d="M422.072 35.0224H121.072C118.477 35.0282 115.989 36.0588 114.149 37.89C112.31 39.7211 111.268 42.2045 111.25 44.8V393.96C111.259 396.561 112.297 399.053 114.137 400.892C115.978 402.73 118.471 403.765 121.072 403.771H422.072C424.672 403.762 427.162 402.726 429 400.888C430.838 399.05 431.875 396.559 431.884 393.96V44.8C431.866 42.2065 430.826 39.7247 428.988 37.8939C427.151 36.0631 424.666 35.0312 422.072 35.0224ZM245.112 109.323H392.728V358.646H245.079L245.112 109.323Z" fill="#66A8E2"/>
<path opacity="0.2" d="M422.072 35.0224H121.072C118.477 35.0282 115.989 36.0588 114.149 37.89C112.31 39.7211 111.268 42.2045 111.25 44.8V393.96C111.259 396.561 112.297 399.053 114.137 400.892C115.978 402.73 118.471 403.765 121.072 403.771H422.072C424.672 403.762 427.162 402.726 429 400.888C430.838 399.05 431.875 396.559 431.884 393.96V44.8C431.866 42.2065 430.826 39.7247 428.988 37.8939C427.151 36.0631 424.666 35.0312 422.072 35.0224ZM245.112 109.323H392.728V358.646H245.079L245.112 109.323Z" fill="black"/>
<path d="M111.25 60.4016V393.96C111.259 396.561 112.297 399.053 114.137 400.892C115.978 402.73 118.471 403.765 121.072 403.771H422.072C424.672 403.762 427.162 402.726 429 400.888C430.838 399.05 431.875 396.559 431.884 393.96V60.4016H111.25ZM245.079 109.323H392.728V358.646H245.079V109.323Z" fill="#66A8E2"/>
<path opacity="0.6" d="M111.25 60.4016V393.96C111.259 396.561 112.297 399.053 114.137 400.892C115.978 402.73 118.471 403.765 121.072 403.771H422.072C424.672 403.762 427.162 402.726 429 400.888C430.838 399.05 431.875 396.559 431.884 393.96V60.4016H111.25ZM245.079 109.323H392.728V358.646H245.079V109.323Z" fill="white"/>
<path d="M113.12 73.4496V390.723H430.08V73.4496H113.12ZM392.784 358.646H245.079V109.323H392.728L392.784 358.646Z" fill="white"/>
<path opacity="0.76" d="M410.345 52.9984C413.228 52.9984 415.564 50.6617 415.564 47.7792C415.564 44.8967 413.228 42.56 410.345 42.56C407.463 42.56 405.126 44.8967 405.126 47.7792C405.126 50.6617 407.463 52.9984 410.345 52.9984Z" fill="#66A8E2"/>
<path opacity="0.76" d="M391.854 52.9984C394.736 52.9984 397.073 50.6617 397.073 47.7792C397.073 44.8967 394.736 42.56 391.854 42.56C388.971 42.56 386.635 44.8967 386.635 47.7792C386.635 50.6617 388.971 52.9984 391.854 52.9984Z" fill="#66A8E2"/>
<path opacity="0.76" d="M368.144 47.7792C368.144 48.8115 368.45 49.8205 369.023 50.6788C369.597 51.5371 370.412 52.2061 371.365 52.6011C372.319 52.9961 373.369 53.0995 374.381 52.8981C375.393 52.6967 376.323 52.1996 377.053 51.4697C377.783 50.7398 378.28 49.8098 378.482 48.7974C378.683 47.785 378.58 46.7356 378.185 45.7819C377.79 44.8282 377.121 44.0131 376.262 43.4396C375.404 42.8661 374.395 42.56 373.363 42.56C371.979 42.56 370.651 43.1099 369.672 44.0887C368.693 45.0675 368.144 46.395 368.144 47.7792Z" fill="#66A8E2"/>
<path d="M111.26 61.0512L431.883 61.0512V59.7408L111.26 59.7408V61.0512Z" fill="#66A8E2"/>
<path d="M438.413 98.4704H437.293V90.6304H438.413V98.4704ZM438.413 83.8096H437.293V58.24H438.413V83.8096Z" fill="#66A8E2"/>
<path opacity="0.4" d="M438.413 98.4704H437.293V90.6304H438.413V98.4704ZM438.413 83.8096H437.293V58.24H438.413V83.8096Z" fill="black"/>
<path d="M165.793 178.954H197.366V163.262H165.793V178.954Z" fill="#66A8E2"/>
<path opacity="0.6" d="M165.793 178.954H197.366V163.262H165.793V178.954Z" fill="white"/>
<path d="M143.237 282.542H201.656V266.851H143.237V282.542Z" fill="#66A8E2"/>
<path opacity="0.6" d="M143.237 282.542H201.656V266.851H143.237V282.542Z" fill="white"/>
<path d="M90.7198 101.259L211.534 101.259V85.568L90.7198 85.568V101.259Z" fill="#66A8E2"/>
<path opacity="0.6" d="M90.7198 101.259L211.534 101.259V85.568L90.7198 85.568V101.259Z" fill="white"/>
<path d="M90.7197 127.154L188.339 127.154V111.462L90.7197 111.462V127.154Z" fill="#66A8E2"/>
<path opacity="0.6" d="M90.7197 127.154L188.339 127.154V111.462L90.7197 111.462V127.154Z" fill="white"/>
<path d="M90.7202 153.048H201.656V137.357H90.7202V153.048Z" fill="#66A8E2"/>
<path opacity="0.6" d="M90.7202 153.048H201.656V137.357H90.7202V153.048Z" fill="white"/>
<path d="M90.7203 178.954H152.679V163.262H90.7203V178.954Z" fill="#66A8E2"/>
<path opacity="0.6" d="M90.7203 178.954H152.679V163.262H90.7203V178.954Z" fill="white"/>
<path d="M90.7202 204.848H201.656V189.157H90.7202V204.848Z" fill="#66A8E2"/>
<path opacity="0.6" d="M90.7202 204.848H201.656V189.157H90.7202V204.848Z" fill="white"/>
<path d="M90.7198 230.742L211.534 230.742V215.051H90.7198V230.742Z" fill="#66A8E2"/>
<path opacity="0.6" d="M90.7198 230.742L211.534 230.742V215.051H90.7198V230.742Z" fill="white"/>
<path d="M90.72 256.648H175.885V240.957H90.72V256.648Z" fill="#66A8E2"/>
<path opacity="0.6" d="M90.72 256.648H175.885V240.957H90.72V256.648Z" fill="white"/>
<path d="M90.72 282.542H130.133V266.851H90.72V282.542Z" fill="#66A8E2"/>
<path opacity="0.6" d="M90.72 282.542H130.133V266.851H90.72V282.542Z" fill="white"/>
<path d="M140.153 335.884C142.598 321.304 132.761 307.502 118.181 305.057C103.601 302.612 89.799 312.449 87.354 327.029C84.9089 341.609 94.7462 355.411 109.326 357.856C123.906 360.301 137.708 350.463 140.153 335.884Z" fill="#66A8E2"/>
<path opacity="0.6" d="M140.153 335.884C142.598 321.304 132.761 307.502 118.181 305.057C103.601 302.612 89.799 312.449 87.354 327.029C84.9089 341.609 94.7462 355.411 109.326 357.856C123.906 360.301 137.708 350.463 140.153 335.884Z" fill="white"/>
<path d="M116.48 326.805C110.118 324.856 106.176 317.934 106.176 317.934C106.176 317.934 104.171 317.822 104.07 319.637C104.032 320.861 104.246 322.08 104.701 323.217C105.156 324.354 105.841 325.385 106.714 326.245L103.656 326.077C102.565 326.018 101.473 326.135 100.419 326.424L99.4001 326.693C98.5599 326.927 97.8436 327.478 97.4026 328.231C96.9616 328.983 96.8305 329.878 97.0369 330.725L98.5601 336.672C98.9883 338.468 100.073 340.038 101.6 341.074C103.128 342.11 104.988 342.538 106.814 342.272C109.928 341.813 114.778 341.152 115.618 340.95L117.858 340.771L118.608 327.432L116.48 326.805Z" fill="white"/>
<path d="M126.448 324.957H117.88C117.211 324.957 116.67 325.498 116.67 326.166V341.309C116.67 341.977 117.211 342.518 117.88 342.518H126.448C127.116 342.518 127.657 341.977 127.657 341.309V326.166C127.657 325.498 127.116 324.957 126.448 324.957Z" fill="#66A8E2"/>
<path d="M200.551 350.386C211.005 339.932 211.005 322.984 200.551 312.53C190.098 302.077 173.149 302.077 162.695 312.53C152.242 322.984 152.242 339.932 162.695 350.386C173.149 360.839 190.098 360.839 200.551 350.386Z" fill="#66A8E2"/>
<path opacity="0.6" d="M200.551 350.386C211.005 339.932 211.005 322.984 200.551 312.53C190.098 302.077 173.149 302.077 162.695 312.53C152.242 322.984 152.242 339.932 162.695 350.386C173.149 360.839 190.098 360.839 200.551 350.386Z" fill="white"/>
<path d="M194.959 321.888C194.083 321.012 193.043 320.317 191.899 319.843C190.754 319.369 189.528 319.125 188.289 319.125C187.05 319.125 185.824 319.369 184.679 319.843C183.535 320.317 182.495 321.012 181.619 321.888C179.851 320.119 177.451 319.125 174.95 319.125C172.448 319.125 170.049 320.119 168.28 321.888C166.511 323.657 165.518 326.056 165.518 328.558C165.518 331.059 166.511 333.458 168.28 335.227L181.619 348.566L194.959 335.227C196.722 333.456 197.713 331.058 197.713 328.558C197.713 326.058 196.722 323.66 194.959 321.888Z" fill="#66A8E2"/>
<path d="M232.68 98.4704V369.51H403.569V98.4704H232.68ZM392.728 358.646H245.078V109.323H392.728V358.646Z" fill="#66A8E2"/>
<path opacity="0.8" d="M232.68 98.4704V369.51H403.569V98.4704H232.68ZM392.728 358.646H245.078V109.323H392.728V358.646Z" fill="white"/>
</svg>
